<svg xmlns="http://www.w3.org/2000/svg" width="174" height="98" viewBox="0 0 174 98"><rect width="100%" height="100%" fill="#DDDDDD"/><path fill="#999999" d="M43.56 56.26h3.51v2.5h-10.8v-2.5h3.96V44.88q0-.67.04-1.39l-2.81 2.35q-.24.19-.48.24-.24.04-.45 0-.2-.04-.37-.14-.16-.1-.24-.22l-1.05-1.45 5.95-5.06h2.74v17.05Zm6.45-17.02H63.5v1.44q0 .65-.13 1.05-.14.4-.27.67l-7.4 15.23q-.23.47-.65.8-.42.33-1.12.33h-2.42l7.55-14.92q.26-.46.51-.84.25-.39.56-.74h-9.35q-.31 0-.54-.23-.23-.23-.23-.54v-2.25ZM68.09 51.4h5.94v-6.38q0-.91.12-2l-6.06 8.38Zm8.84 0h2.46v1.93q0 .27-.18.47-.17.19-.49.19h-1.79v4.77h-2.9v-4.77H65.8q-.34 0-.6-.2-.25-.21-.32-.52l-.35-1.69 9.24-12.35h3.16V51.4Zm23.91 2.89-1.77 1.74-4.57-4.57-4.62 4.6-1.77-1.74 4.62-4.63-4.4-4.4 1.75-1.76 4.4 4.4 4.38-4.37 1.78 1.75-4.39 4.39 4.59 4.59Zm12.48-9.19q0 1.63.84 2.49.84.86 2.4.86.81 0 1.44-.26.63-.26 1.07-.7.43-.45.65-1.06.22-.6.22-1.3 0-.8-.24-1.43-.24-.63-.69-1.06-.44-.43-1.06-.66-.61-.23-1.34-.23-.76 0-1.36.25-.61.25-1.04.69-.44.45-.66 1.06-.23.62-.23 1.35Zm-1.64 13.66 6.06-7.57q.23-.29.44-.56.2-.27.39-.54-.68.44-1.49.66-.81.22-1.7.22-1.01 0-1.98-.35t-1.73-1.06q-.76-.71-1.22-1.76-.47-1.04-.47-2.45 0-1.3.49-2.45.48-1.15 1.36-2.01.88-.87 2.11-1.37 1.23-.5 2.71-.5 1.5 0 2.69.48 1.2.47 2.04 1.32.85.85 1.3 2.04.45 1.19.45 2.6 0 .91-.15 1.72-.16.81-.44 1.56-.29.75-.69 1.46-.41.72-.91 1.42l-4.46 6.37q-.23.32-.69.55-.46.22-1.04.22h-3.07Zm20.67-2.39q.82 0 1.45-.24.62-.23 1.04-.65.43-.42.64-1 .22-.58.22-1.26 0-1.6-.89-2.42-.89-.83-2.46-.83-1.56 0-2.46.83-.89.82-.89 2.42 0 .68.22 1.26t.64 1q.43.42 1.05.65.62.24 1.44.24Zm0-14.84q-.74 0-1.28.23t-.9.62q-.36.38-.53.88-.16.5-.16 1.05 0 .59.14 1.13.14.55.48.97.33.43.89.69.55.25 1.36.25t1.36-.25q.56-.26.9-.69.33-.42.47-.97.15-.54.15-1.13 0-.55-.18-1.05-.17-.5-.53-.88-.35-.39-.89-.62-.54-.23-1.28-.23Zm3.3 7.05q1.78.58 2.63 1.78.85 1.19.85 2.92 0 1.3-.49 2.35-.5 1.05-1.39 1.79-.89.75-2.14 1.15-1.25.41-2.76.41-1.51 0-2.76-.41-1.25-.4-2.14-1.15-.89-.74-1.38-1.79-.5-1.05-.5-2.35 0-1.73.85-2.92.85-1.2 2.64-1.78-1.42-.59-2.13-1.69-.71-1.09-.71-2.63 0-1.11.45-2.06.46-.96 1.27-1.67t1.93-1.11q1.13-.4 2.48-.4t2.48.4q1.13.4 1.94 1.11.81.71 1.26 1.67.45.95.45 2.06 0 1.54-.71 2.63-.71 1.1-2.12 1.69Z"/></svg>