<svg xmlns="http://www.w3.org/2000/svg" width="212" height="285" viewBox="0 0 212 285"><rect width="100%" height="100%" fill="#256788"/><path fill="#FFF" d="M51.145 149.405h5.19q.56 0 .89.31.33.32.33.84v2.07h-13.89v-1.15q0-.35.15-.73.14-.39.47-.7l6.14-6.16q.77-.78 1.38-1.49.61-.72 1.02-1.42.4-.7.62-1.42.22-.72.22-1.52 0-.73-.21-1.28t-.6-.93q-.38-.38-.92-.57-.54-.19-1.21-.19-.62 0-1.15.18-.52.17-.93.49-.4.31-.68.73t-.42.93q-.24.64-.62.85-.38.21-1.09.1l-1.82-.32q.21-1.46.81-2.56.6-1.1 1.51-1.83.9-.74 2.07-1.11 1.17-.37 2.51-.37 1.4 0 2.56.42 1.17.41 1.99 1.16.83.76 1.29 1.82.46 1.07.46 2.37 0 1.12-.33 2.07-.33.95-.88 1.82-.55.87-1.29 1.68-.75.81-1.56 1.65l-4.56 4.67q.66-.2 1.31-.31.65-.1 1.24-.1Zm18.55.63h3.64v2.59h-11.2v-2.59h4.1v-11.8q0-.7.04-1.44l-2.91 2.43q-.25.2-.5.25-.24.05-.46 0-.22-.04-.39-.14-.16-.11-.25-.23l-1.09-1.5 6.17-5.25h2.85v17.68Zm13.93-.63h5.19q.56 0 .89.31.33.32.33.84v2.07h-13.89v-1.15q0-.35.15-.73.14-.39.47-.7l6.14-6.16q.77-.78 1.38-1.49.61-.72 1.02-1.42.4-.7.62-1.42.22-.72.22-1.52 0-.73-.21-1.28t-.6-.93q-.38-.38-.92-.57-.54-.19-1.21-.19-.62 0-1.15.18-.52.17-.93.49-.4.31-.68.73t-.42.93q-.24.64-.62.85-.38.21-1.09.1l-1.82-.32q.21-1.46.81-2.56.6-1.1 1.51-1.83.9-.74 2.07-1.11 1.17-.37 2.51-.37 1.4 0 2.56.42 1.17.41 1.99 1.16.83.76 1.29 1.82.46 1.07.46 2.37 0 1.12-.33 2.07-.33.95-.88 1.82-.55.87-1.29 1.68-.75.81-1.56 1.65l-4.56 4.67q.66-.2 1.31-.31.65-.1 1.24-.1Zm29.23-1.41-1.84 1.8-4.74-4.74-4.79 4.77-1.83-1.81 4.78-4.8-4.56-4.56 1.82-1.82 4.56 4.56 4.54-4.53 1.85 1.82-4.55 4.55 4.76 4.76Zm16.85 1.41h5.2q.56 0 .89.31.33.32.33.84v2.07h-13.89v-1.15q0-.35.14-.73.15-.39.47-.7l6.15-6.16q.77-.78 1.38-1.49.61-.72 1.01-1.42.41-.7.63-1.42.21-.72.21-1.52 0-.73-.21-1.28t-.59-.93q-.39-.38-.93-.57-.53-.19-1.21-.19-.61 0-1.14.18-.52.17-.93.49-.4.31-.68.73t-.42.93q-.24.64-.62.85-.38.21-1.09.1l-1.82-.32q.21-1.46.81-2.56.6-1.1 1.5-1.83.91-.74 2.08-1.11 1.17-.37 2.51-.37 1.4 0 2.56.42 1.16.41 1.99 1.16.83.76 1.29 1.82.46 1.07.46 2.37 0 1.12-.33 2.07-.33.95-.88 1.82-.55.87-1.3 1.68-.74.81-1.55 1.65l-4.56 4.67q.65-.2 1.3-.31.66-.1 1.24-.1Zm15.82.74q.86 0 1.5-.24.65-.25 1.09-.68.44-.44.66-1.04.23-.6.23-1.3 0-1.67-.93-2.52-.92-.85-2.55-.85-1.62 0-2.54.85-.93.85-.93 2.52 0 .7.23 1.3.22.6.66 1.04.44.43 1.09.68.64.24 1.49.24Zm0-15.38q-.77 0-1.33.23-.56.24-.93.64t-.54.92q-.18.52-.18 1.09 0 .6.15 1.17t.5 1.01q.35.44.92.7.57.27 1.41.27t1.42-.27q.57-.26.92-.7.35-.44.5-1.01.15-.57.15-1.17 0-.57-.19-1.09-.18-.52-.54-.92-.37-.4-.93-.64-.56-.23-1.33-.23Zm3.42 7.3q1.85.61 2.73 1.85.88 1.23.88 3.03 0 1.34-.51 2.43t-1.43 1.86q-.93.77-2.22 1.19-1.3.42-2.87.42-1.56 0-2.86-.42-1.29-.42-2.22-1.19-.92-.77-1.43-1.86-.51-1.09-.51-2.43 0-1.8.88-3.03.88-1.24 2.73-1.85-1.47-.61-2.21-1.75-.73-1.13-.73-2.73 0-1.14.47-2.14.47-.99 1.31-1.73.84-.73 2-1.14 1.17-.42 2.57-.42t2.57.42q1.17.41 2.01 1.14.84.74 1.31 1.73.47 1 .47 2.14 0 1.6-.74 2.73-.73 1.14-2.2 1.75Zm11.1-6.55-.71 4.22q.67-.14 1.29-.21.61-.06 1.19-.06 1.59 0 2.81.48 1.22.47 2.04 1.31.83.84 1.25 1.97.42 1.13.42 2.43 0 1.61-.57 2.94-.56 1.33-1.57 2.27-1.01.95-2.39 1.47-1.38.51-3 .51-.95 0-1.81-.19-.85-.2-1.6-.53-.75-.33-1.39-.75-.63-.43-1.14-.91l1.07-1.47q.33-.47.88-.47.35 0 .71.22.37.23.83.49.47.27 1.11.49.64.23 1.53.23.96 0 1.68-.31.73-.31 1.21-.86.49-.56.73-1.32.25-.76.25-1.66 0-1.65-.96-2.58-.96-.93-2.84-.93-1.44 0-2.95.53l-2.16-.62 1.68-9.82h10v1.47q0 .74-.46 1.2-.46.46-1.57.46h-5.56Z"/></svg>