<svg xmlns="http://www.w3.org/2000/svg" width="276" height="155" viewBox="0 0 276 155"><rect width="100%" height="100%" fill="#DDDDDD"/><path fill="#999999" d="M65.5 86.625h6.87q.74 0 1.17.41.44.42.44 1.1v2.74H55.63v-1.52q0-.46.19-.97t.62-.91l8.12-8.14q1.02-1.04 1.82-1.98.81-.95 1.34-1.87.54-.93.83-1.88.28-.95.28-2.01 0-.96-.27-1.69-.28-.73-.79-1.23t-1.22-.75q-.71-.25-1.6-.25-.82 0-1.51.23-.69.23-1.23.65-.54.42-.91.97-.37.56-.55 1.22-.32.85-.81 1.13-.5.28-1.45.13l-2.4-.43q.28-1.92 1.07-3.37.8-1.45 1.99-2.43 1.19-.97 2.74-1.46 1.54-.49 3.32-.49 1.85 0 3.38.55 1.54.54 2.63 1.54 1.09 1 1.7 2.41.61 1.4.61 3.12 0 1.48-.43 2.74-.44 1.26-1.17 2.41-.73 1.15-1.71 2.22-.98 1.07-2.05 2.18l-6.03 6.16q.87-.26 1.73-.4.86-.13 1.63-.13Zm11.9-22.5h18.48v1.98q0 .89-.18 1.43-.19.55-.37.92l-10.14 20.87q-.32.64-.89 1.1-.57.45-1.54.45h-3.31l10.34-20.44q.36-.63.7-1.16.34-.53.77-1.01H78.45q-.42 0-.74-.31-.31-.32-.31-.74v-3.09Zm37.33 0-7.93 9.71-.93 1.15q.78-.39 1.68-.6.89-.22 1.93-.22 1.52 0 2.95.5 1.43.5 2.52 1.51 1.1 1.01 1.76 2.51.67 1.5.67 3.49 0 1.87-.69 3.51-.68 1.64-1.92 2.86-1.24 1.22-2.99 1.92-1.75.71-3.86.71-2.14 0-3.84-.69-1.71-.68-2.91-1.91-1.2-1.23-1.84-2.96-.64-1.73-.64-3.84 0-1.89.77-3.88t2.38-4.13l6.38-8.57q.33-.44.97-.76.64-.31 1.47-.31h4.07Zm-6.9 23.31q1.09 0 2.01-.37.91-.37 1.57-1.04.66-.66 1.03-1.56t.37-1.95q0-1.15-.35-2.06-.35-.92-1-1.56t-1.56-.97q-.9-.33-1.99-.33-1.1 0-1.98.37-.89.37-1.52 1.02-.63.66-.98 1.56t-.35 1.93q0 1.11.3 2.03.31.91.91 1.56.6.65 1.49 1.01t2.05.36Zm39.22-2.68-2.42 2.38-6.27-6.27-6.33 6.31-2.42-2.39 6.32-6.34-6.03-6.03 2.41-2.41 6.03 6.03 5.99-5.99 2.44 2.4-6.01 6.02 6.29 6.29Zm25.33 2.7h4.81v3.42h-14.8v-3.42h5.42v-15.6q0-.92.05-1.9l-3.84 3.22q-.34.25-.66.32-.32.06-.61.01-.29-.06-.51-.2-.22-.13-.33-.3l-1.45-1.98 8.16-6.94h3.76v23.37Zm15.58-19.19-.95 5.57q.89-.18 1.7-.27.82-.08 1.58-.08 2.11 0 3.71.63 1.61.63 2.71 1.74 1.09 1.11 1.64 2.6.56 1.49.56 3.21 0 2.12-.75 3.88-.75 1.76-2.08 3.01-1.34 1.25-3.16 1.93-1.82.69-3.97.69-1.25 0-2.38-.26t-2.12-.7q-.99-.43-1.83-1-.84-.56-1.51-1.19l1.41-1.94q.44-.63 1.16-.63.46 0 .95.3.48.29 1.1.64.62.35 1.46.65.84.3 2.02.3 1.26 0 2.22-.41.97-.41 1.6-1.14.64-.73.97-1.74.32-1.01.32-2.19 0-2.18-1.27-3.41t-3.74-1.23q-1.91 0-3.91.7l-2.85-.81 2.22-12.99h13.21v1.94q0 .98-.61 1.59-.61.61-2.07.61h-7.34Zm21.46 0-.95 5.57q.89-.18 1.7-.27.82-.08 1.58-.08 2.11 0 3.71.63 1.61.63 2.71 1.74 1.09 1.11 1.64 2.6.56 1.49.56 3.21 0 2.12-.75 3.88-.75 1.76-2.08 3.01-1.34 1.25-3.16 1.93-1.82.69-3.97.69-1.25 0-2.38-.26t-2.12-.7q-.99-.43-1.83-1-.84-.56-1.51-1.19l1.41-1.94q.44-.63 1.16-.63.46 0 .95.3.48.29 1.1.64.62.35 1.46.65.84.3 2.02.3 1.26 0 2.22-.41.97-.41 1.6-1.14.64-.73.97-1.74.32-1.01.32-2.19 0-2.18-1.27-3.41t-3.74-1.23q-1.91 0-3.91.7l-2.85-.81 2.22-12.99h13.21v1.94q0 .98-.61 1.59-.61.61-2.07.61h-7.34Z"/></svg>