<svg xmlns="http://www.w3.org/2000/svg" width="583" height="327" viewBox="0 0 583 327"><rect width="100%" height="100%" fill="#DDDDDD"/><path fill="#999999" d="m133.705 144.285-1.96 11.59q1.85-.38 3.54-.56 1.7-.17 3.27-.17 4.39 0 7.74 1.31 3.35 1.31 5.62 3.62 2.28 2.31 3.43 5.41 1.16 3.1 1.16 6.68 0 4.42-1.56 8.08t-4.33 6.26q-2.78 2.6-6.57 4.02-3.79 1.43-8.26 1.43-2.62 0-4.96-.54-2.35-.54-4.41-1.45-2.06-.9-3.81-2.08-1.76-1.17-3.14-2.48l2.92-4.04q.93-1.31 2.43-1.31.96 0 1.96.62 1 .61 2.29 1.34 1.29.73 3.05 1.35 1.75.62 4.21.62 2.62 0 4.62-.85t3.33-2.37q1.33-1.52 2-3.62.68-2.1.68-4.56 0-4.54-2.64-7.1-2.64-2.56-7.8-2.56-3.96 0-8.12 1.46l-5.93-1.69 4.62-27.03h27.49v4.04q0 2.04-1.27 3.31t-4.31 1.27h-15.29Zm49.4 40.24q2.35 0 4.12-.68 1.77-.67 2.98-1.87 1.22-1.19 1.83-2.84.62-1.66.62-3.59 0-4.58-2.54-6.92-2.54-2.35-7.01-2.35t-7.01 2.35q-2.54 2.34-2.54 6.92 0 1.93.62 3.59.61 1.65 1.83 2.84 1.21 1.2 2.98 1.87 1.77.68 4.12.68Zm0-42.32q-2.12 0-3.66.66-1.54.65-2.56 1.75t-1.5 2.52q-.48 1.43-.48 3 0 1.66.4 3.22.41 1.56 1.37 2.77.96 1.21 2.54 1.95 1.58.73 3.89.73t3.89-.73q1.58-.74 2.54-1.95t1.37-2.77q.4-1.56.4-3.22 0-1.57-.5-3-.5-1.42-1.5-2.52t-2.54-1.75q-1.54-.66-3.66-.66Zm9.39 20.1q5.09 1.66 7.51 5.06 2.43 3.41 2.43 8.34 0 3.69-1.41 6.7-1.4 3-3.95 5.12-2.54 2.12-6.1 3.27-3.56 1.16-7.87 1.16-4.31 0-7.87-1.16-3.57-1.15-6.11-3.27-2.54-2.12-3.94-5.12-1.41-3.01-1.41-6.7 0-4.93 2.43-8.34 2.42-3.4 7.51-5.06-4.05-1.69-6.07-4.81-2.02-3.12-2.02-7.51 0-3.16 1.29-5.89 1.29-2.73 3.6-4.75 2.31-2.03 5.52-3.16 3.22-1.14 7.07-1.14t7.06 1.14q3.22 1.13 5.53 3.16 2.31 2.02 3.6 4.75t1.29 5.89q0 4.39-2.02 7.51t-6.07 4.81Zm22.1-10.24-5-.89q.57-4 2.23-7.02 1.66-3.02 4.14-5.05 2.48-2.02 5.7-3.04 3.21-1.02 6.91-1.02 3.85 0 6.95 1.1t5.29 3.04q2.2 1.95 3.37 4.56 1.17 2.62 1.17 5.66 0 2.66-.59 4.68-.6 2.02-1.72 3.52-1.11 1.51-2.77 2.55-1.65 1.03-3.73 1.73 5 1.58 7.47 4.81 2.46 3.23 2.46 8.12 0 4.16-1.54 7.36-1.54 3.19-4.16 5.37-2.62 2.17-6.06 3.29-3.45 1.12-7.3 1.12-4.19 0-7.31-.97-3.12-.96-5.43-2.85-2.31-1.88-3.93-4.62-1.61-2.73-2.77-6.31l4.2-1.73q1.65-.69 3.1-.37 1.44.33 2.09 1.56.7 1.35 1.52 2.66.83 1.31 1.99 2.33 1.15 1.02 2.71 1.65 1.56.64 3.72.64 2.42 0 4.23-.79 1.81-.79 3.02-2.06 1.22-1.27 1.81-2.83.6-1.56.6-3.14 0-2-.42-3.64-.43-1.63-1.77-2.79-1.35-1.15-3.87-1.81-2.52-.65-6.76-.65v-6.78q3.5-.04 5.81-.65 2.31-.62 3.68-1.72 1.37-1.09 1.91-2.63.54-1.54.54-3.39 0-3.93-2.2-5.97-2.19-2.04-5.85-2.04-1.7 0-3.12.48-1.42.48-2.56 1.35-1.14.87-1.91 2.02-.77 1.16-1.15 2.54-.66 1.77-1.71 2.35-1.06.58-2.99.27Zm94.71 26.53-5.04 4.96-13.05-13.05-13.17 13.13-5.04-4.97 13.16-13.2-12.55-12.55 5.01-5.01 12.55 12.55 12.47-12.47 5.08 5-12.51 12.52 13.09 13.09Zm32.03-26.53-5-.89q.58-4 2.23-7.02 1.66-3.02 4.14-5.05 2.48-2.02 5.7-3.04 3.21-1.02 6.91-1.02 3.85 0 6.95 1.1t5.29 3.04q2.2 1.95 3.37 4.56 1.18 2.62 1.18 5.66 0 2.66-.6 4.68-.6 2.02-1.71 3.52-1.12 1.51-2.78 2.55-1.65 1.03-3.73 1.73 5 1.58 7.47 4.81 2.46 3.23 2.46 8.12 0 4.16-1.54 7.36-1.54 3.19-4.16 5.37-2.61 2.17-6.06 3.29-3.45 1.12-7.3 1.12-4.19 0-7.31-.97-3.12-.96-5.43-2.85-2.31-1.88-3.93-4.62-1.61-2.73-2.77-6.31l4.2-1.73q1.65-.69 3.1-.37 1.44.33 2.1 1.56.69 1.35 1.52 2.66.82 1.31 1.98 2.33 1.15 1.02 2.71 1.65 1.56.64 3.72.64 2.42 0 4.23-.79 1.81-.79 3.03-2.06 1.21-1.27 1.81-2.83.59-1.56.59-3.14 0-2-.42-3.64-.42-1.63-1.77-2.79-1.35-1.15-3.87-1.81-2.52-.65-6.76-.65v-6.78q3.51-.04 5.82-.65 2.31-.62 3.67-1.72 1.37-1.09 1.91-2.63.54-1.54.54-3.39 0-3.93-2.2-5.97-2.19-2.04-5.85-2.04-1.69 0-3.12.48-1.42.48-2.56 1.35-1.13.87-1.9 2.02-.77 1.16-1.16 2.54-.65 1.77-1.71 2.35-1.06.58-2.99.27Zm58.99 30.41h14.28q1.54 0 2.44.87.91.87.91 2.29v5.7h-38.19v-3.16q0-.96.4-2.02.41-1.06 1.29-1.9l16.9-16.94q2.12-2.16 3.79-4.12 1.68-1.97 2.8-3.89 1.11-1.93 1.71-3.91.6-1.98.6-4.18 0-2-.58-3.52t-1.64-2.56q-1.06-1.04-2.54-1.56t-3.33-.52q-1.69 0-3.14.48-1.44.48-2.56 1.35-1.11.87-1.88 2.02-.77 1.16-1.16 2.54-.65 1.77-1.69 2.35-1.04.58-3.01.27l-5-.89q.58-4 2.23-7.02 1.66-3.02 4.14-5.05 2.48-2.02 5.7-3.04 3.21-1.02 6.91-1.02 3.85 0 7.05 1.14 3.19 1.13 5.46 3.21t3.54 5.01q1.28 2.92 1.28 6.51 0 3.08-.91 5.69-.9 2.62-2.43 5.01-1.52 2.38-3.56 4.62-2.04 2.23-4.27 4.54l-12.55 12.82q1.81-.54 3.6-.83 1.79-.29 3.41-.29Zm24.75-46.81h38.46v4.12q0 1.85-.38 2.98-.39 1.14-.77 1.91l-21.1 43.43q-.65 1.34-1.85 2.29-1.19.94-3.19.94h-6.89l21.52-42.54q.73-1.31 1.44-2.41t1.6-2.1h-26.64q-.89 0-1.54-.65-.66-.66-.66-1.54v-6.43Z"/></svg>