<svg xmlns="http://www.w3.org/2000/svg" width="184" height="60" viewBox="0 0 184 60"><rect width="100%" height="100%" fill="#256788"/><path fill="#FFF" d="M46.765 37.535h3.64v2.59h-11.2v-2.59h4.1v-11.8q0-.7.04-1.44l-2.91 2.43q-.25.2-.5.25-.24.05-.46 0-.22-.04-.39-.14-.16-.11-.25-.23l-1.09-1.5 6.17-5.25h2.85v17.68Zm13.51.11q.85 0 1.49-.24.65-.25 1.09-.68.44-.44.66-1.04.23-.6.23-1.3 0-1.67-.93-2.52-.92-.85-2.54-.85-1.63 0-2.55.85-.93.85-.93 2.52 0 .7.23 1.3.22.6.66 1.04.44.43 1.09.68.64.24 1.5.24Zm0-15.38q-.77 0-1.33.23-.56.24-.94.64-.37.4-.54.92-.18.52-.18 1.09 0 .6.15 1.17t.5 1.01q.35.44.92.7.58.27 1.42.27t1.41-.27q.57-.26.92-.7.35-.44.5-1.01.15-.57.15-1.17 0-.57-.18-1.09-.19-.52-.55-.92-.36-.4-.92-.64-.56-.23-1.33-.23Zm3.41 7.3q1.85.61 2.73 1.85.88 1.23.88 3.03 0 1.34-.51 2.43t-1.43 1.86q-.93.77-2.22 1.19-1.3.42-2.86.42-1.57 0-2.87-.42-1.29-.42-2.22-1.19-.92-.77-1.43-1.86-.51-1.09-.51-2.43 0-1.8.88-3.03.88-1.24 2.73-1.85-1.47-.61-2.21-1.75-.73-1.13-.73-2.73 0-1.14.47-2.14.47-.99 1.31-1.73.84-.73 2.01-1.14 1.17-.42 2.57-.42t2.56.42q1.17.41 2.01 1.14.84.74 1.31 1.73.47 1 .47 2.14 0 1.6-.73 2.73-.74 1.14-2.21 1.75Zm8.51 2.93h6.16v-6.62q0-.94.13-2.07l-6.29 8.69Zm9.17 0h2.55v2q0 .28-.18.48-.18.21-.52.21h-1.85v4.94h-3.01v-4.94h-8.54q-.35 0-.61-.22-.27-.22-.34-.54l-.36-1.75 9.59-12.81h3.27v12.63Zm24.8 3-1.84 1.8-4.74-4.74-4.79 4.77-1.83-1.81 4.78-4.8-4.56-4.56 1.82-1.82 4.56 4.56 4.54-4.53 1.85 1.82-4.55 4.55 4.76 4.76Zm21.63-15.61-6.01 7.35-.7.86q.59-.29 1.27-.45.68-.16 1.46-.16 1.15 0 2.23.38 1.09.37 1.92 1.14.82.76 1.33 1.89.5 1.14.5 2.65 0 1.41-.52 2.65t-1.45 2.17q-.94.92-2.26 1.45-1.33.53-2.92.53-1.63 0-2.92-.51-1.28-.52-2.19-1.45-.91-.93-1.4-2.24-.48-1.31-.48-2.91 0-1.43.58-2.93.58-1.51 1.8-3.13l4.83-6.48q.25-.34.73-.58.49-.23 1.12-.23h3.08Zm-5.22 17.64q.82 0 1.52-.28.69-.28 1.18-.79.5-.5.78-1.18.28-.68.28-1.48 0-.87-.26-1.56-.27-.69-.76-1.17-.49-.49-1.18-.74-.68-.25-1.51-.25-.82 0-1.5.28-.67.28-1.14.77-.48.5-.75 1.18-.26.68-.26 1.46 0 .84.23 1.54.23.69.68 1.18.46.49 1.13.76.67.28 1.56.28Zm23.68-7.52q0 2.64-.56 4.6-.57 1.95-1.57 3.22-1 1.28-2.37 1.9-1.36.62-2.94.62-1.59 0-2.94-.62-1.35-.62-2.34-1.9-1-1.27-1.56-3.22-.56-1.96-.56-4.6 0-2.66.56-4.61.56-1.94 1.56-3.22.99-1.27 2.34-1.89 1.35-.63 2.94-.63 1.58 0 2.94.63 1.37.62 2.37 1.89 1 1.28 1.57 3.22.56 1.95.56 4.61Zm-3.57 0q0-2.2-.32-3.64t-.86-2.3q-.54-.85-1.24-1.19-.7-.35-1.45-.35t-1.44.35q-.69.34-1.22 1.19-.54.86-.85 2.3-.32 1.44-.32 3.64t.32 3.64q.31 1.44.85 2.29.53.86 1.22 1.2.69.34 1.44.34t1.45-.34q.7-.34 1.24-1.2.54-.85.86-2.29.32-1.44.32-3.64Z"/></svg>